# AST/ASF file generated using VICON BodyLanguage
# -----------------------------------------------
:version 1.10
:name VICON
:units
  mass 1.0
  length 0.45
  angle deg
:documentation
   .ast/.asf automatically generated from VICON data using
   VICON BodyBuilder and BodyLanguage model FoxedUp or BRILLIANT.MOD
:root
   order TX TY TZ RX RY RZ
   axis XYZ
   position 0 0 0  
   orientation 0 0 0 
:bonedata
  begin
     id 1 
     name lhipjoint
     direction 0.606768 -0.715223 0.346827 
     length 2.41543 
     axis 0 0 0  XYZ
  end
  begin
     id 2 
     name lfemur
     direction 0.34202 -0.939693 0  
     length 7.2778  
     axis 0 0 20  XYZ
    dof rx ry rz
    limits (-160.0 20.0)
           (-70.0 70.0)
           (-60.0 70.0)
  end
  begin
     id 3 
     name ltibia
     direction 0.34202 -0.939693 0   
     length 7.61811   
     axis 0 0 20   XYZ
    dof rx
    limits (-10.0 170.0)
  end
  begin
     id 4 
     name lfoot
     direction 0.0823924 -0.226371 0.97055   
     length 2.33618   
     axis -90 7.62852e-016 20   XYZ
    dof rx rz
    limits (-45.0 90.0)
           (-70.0 20.0)
  end
  begin
     id 5 
     name ltoes
     direction 1.53554e-011 -4.21934e-011 1   
     length 1.17015   
     axis -90 7.62852e-016 20   XYZ
    dof rx
    limits (-90.0 20.0)
  end
  begin
     id 6 
     name rhipjoint
     direction -0.6077 -0.714582 0.346516   
     length 2.4176  
     axis 0 0 0  XYZ 
  end
  begin
     id 7 
     name rfemur
     direction -0.34202 -0.939693 0   
     length 7.28127   
     axis 0 0 -20   XYZ
    dof rx ry rz
    limits (-160.0 20.0)
           (-70.0 70.0)
           (-70.0 60.0)
  end
  begin
     id 8 
     name rtibia
     direction -0.34202 -0.939693 0   
     length 7.77648   
     axis 0 0 -20   XYZ
    dof rx
    limits (-10.0 170.0)
 end
 begin
     id 9 
     name rfoot
     direction -0.0809463 -0.222398 0.97159   
     length 2.37533  
     axis -90 -7.62852e-016 -20   XYZ
    dof rx rz
    limits (-45.0 90.0)
           (-20.0 70.0)
  end
  begin
     id 10 
     name rtoes
     direction -1.53568e-011 -4.21714e-011 1   
     length 1.18972   
     axis -90 -7.62852e-016 -20   XYZ
    dof rx
    limits (-90.0 20.0)
  end
  begin
     id 11 
     name lowerback
     direction 0.010968 0.991932 -0.126297   
     length 2.21698   
     axis 0 0 0   XYZ
    dof rx ry rz
    limits (-20.0 45.0)
           (-30.0 30.0)
           (-30.0 30.0)
  end
  begin
     id 12 
     name upperback
     direction 0.0167007 0.997503 -0.0686276   
     length 2.22371   
     axis 0 0 0   XYZ
    dof rx ry rz
    limits (-20.0 45.0)
           (-30.0 30.0)
           (-30.0 30.0)
  end
  begin
     id 13 
     name thorax
     direction 0.0111721 0.999885 -0.0102878   
     length 2.25242   
     axis 0 0 0   XYZ
    dof rx ry rz
    limits (-20.0 45.0)
           (-30.0 30.0)
           (-30.0 30.0)
  end
  begin
     id 14 
     name lowerneck
     direction -0.0120265 0.990428 0.137508   
     length 1.57674   
     axis 0 0 0   XYZ
    dof rx ry rz
    limits (-20.0 45.0)
           (-30.0 30.0)
           (-30.0 30.0)
  end
  begin
     id 15 
     name upperneck
     direction 0.0175669 0.998907 0.0433089   
     length 1.5618   
     axis 0 0 0   XYZ
    dof rx ry rz
    limits (-20.0 45.0)
           (-30.0 30.0)
           (-30.0 30.0)
  end
  begin
     id 16
     name head
     direction 0.00754609 0.99997 0.00185367  
     length 1.60579  
     axis 0 0 0   XYZ
    dof rx ry rz
    limits (-20.0 45.0)
           (-30.0 30.0)
           (-30.0 30.0)
  end
  begin
     id 17 
     name lclavicle
     direction 0.885866 0.429166 -0.176231  
     length 3.44967  
     axis 0 0 0   XYZ
    dof ry rz
    limits (-20.0 10.0)
           (0.0 20.0)
  end
  begin
     id 18 
     name lhumerus
     direction 1 -4.48973e-011 -1.90255e-027   
     length 5.20607   
     axis 180 -30 -90   XYZ
    dof rx ry rz
    limits (-60.0 90.0)
           (-90.0 90.0)
           (-90.0 90.0)
  end
  begin
     id 19
     name lradius
     direction 1 -4.48956e-011 9.87925e-027   
     length 3.39961   
     axis 180 -30 -90   XYZ
    dof rx
    limits (-10.0 170.0)
  end
  begin
     id 20
     name lwrist
     direction 1 -4.48985e-011 1.73247e-026   
     length 1.6998   
     axis -9.60847e-015 90 90   XYZ
    dof ry
    limits (-180.0 0.0)
 end
  begin
     id 21 
     name lhand
     direction 1 -4.48798e-011 3.46119e-026   
     length 0.519693   
     axis -2.21073e-014 90 90   XYZ
    dof rx rz
    limits (-90.0 90.0)
           (-45.0 45.0)
  end
  begin
     id 22 
     name lfingers
     direction 1 -4.48938e-011 6.92797e-026   
     length 0.41899   
     axis -4.42155e-014 90 90   XYZ
    dof rx
    limits (0.0 90.0)
  end
  begin
     id 23
     name lthumb
     direction 0.707107 -6.34952e-011 0.707107   
     length 0.601588   
     axis -90 45 6.0103e-014   XYZ
    dof rx rz
    limits (-45.0 45.0)
           (-45.0 45.0)
  end
  begin
     id 24 
     name rclavicle
     direction -0.866736 0.456792 -0.200276   
     length 3.45032  
     axis 0 0 0   XYZ 
    dof ry rz
    limits (-10.0 20.0)
           (-20.0 0.0)
  end
  begin
     id 25 
     name rhumerus
     direction -1 -4.4897e-011 8.65094e-028  
     length 5.32214   
     axis 180 30 90   XYZ
    dof rx ry rz
    limits (-90.0 60.0)
           (-90.0 90.0)
           (-90.0 90.0)
  end
  begin
     id 26 
     name rradius
     direction -1 -4.48987e-011 1.08427e-026   
     length 3.51208   
     axis 180 30 90   XYZ
    dof rx
    limits (-10.0 170.0)
  end
  begin
     id 27 
     name rwrist
     direction -1 -4.48961e-011 1.73222e-026   
     length 1.75604   
     axis -9.60847e-015 -90 -90   XYZ
    dof ry
    limits (-180.0 0.0)
  end
  begin
     id 28
     name rhand
     direction -1 -4.48895e-011 3.46314e-026   
     length 0.586681   
     axis -2.21073e-014 -90 -90   XYZ
    dof rx rz
    limits (-90.0 90.0)
           (-45.0 45.0)
  end
  begin
     id 29
     name rfingers
     direction -1 -4.48968e-011 6.92916e-026   
     length 0.472997   
     axis -4.42155e-014 -90 -90   XYZ
    dof rx
    limits (0.0 90.0)
  end
  begin
     id 30
     name rthumb
     direction -0.707107 -6.34848e-011 0.707107   
     length 0.679133   
     axis -90 -45 -6.0103e-014   XYZ
    dof rx rz
    limits (-45.0 45.0)
           (-45.0 45.0)
  end
:hierarchy
  begin
    root lhipjoint rhipjoint lowerback
    lhipjoint lfemur
    lfemur ltibia
    ltibia lfoot
    lfoot ltoes
    rhipjoint rfemur
    rfemur rtibia
    rtibia rfoot
    rfoot rtoes
    lowerback upperback
    upperback thorax
    thorax lowerneck lclavicle rclavicle
    lowerneck upperneck
    upperneck head
    lclavicle lhumerus
    lhumerus lradius
    lradius lwrist
    lwrist lhand lthumb
    lhand lfingers
    rclavicle rhumerus
    rhumerus rradius
    rradius rwrist
    rwrist rhand rthumb
    rhand rfingers
  end

#!OML:ASF H:\Dans Jumps\Project 1\Capture day 1\Session 1\subject.ASF
:FULLY-SPECIFIED
:DEGREES
42
root 0.124578 17.5226 -14.4131 11.1387 0.168304 -1.40938
lowerback 3.90643 -0.14485 -0.0877552
upperback 6.12231 -0.234761 1.33023
thorax 4.13194 -0.154535 1.4229
lowerneck -11.5872 1.27314 -2.10905
upperneck 35.0437 2.13199 0.87134
head 13.7761 0.759107 1.037
rclavicle -1.78906e-015 -5.96354e-016
rhumerus -21.2717 -14.3379 -82.3519
rradius 27.0561
rwrist 27.5705
rhand -18.5632 -25.5408
rfingers 7.12502
rthumb 7.72679 -55.3797
lclavicle -1.78906e-015 -5.96354e-016
lhumerus -15.9211 -2.25398 85.1735
lradius 19.207
lwrist 11.2825
lhand -27.0168 -4.10031
lfingers 7.12502
lthumb -0.436309 25.879
rfemur -23.4972 -0.616784 18.5715
rtibia 27.7063
rfoot -12.9628 -1.77578
rtoes 5.11393
lfemur -20.6327 5.88063 -17.294
ltibia 23.0354
lfoot -11.126 4.03897
ltoes -6.26267
43
root 0.118096 17.513 -14.4131 11.0606 0.317794 -1.37653
lowerback 3.92003 -0.183946 -0.0774757
upperback 6.16366 -0.287531 1.35362
thorax 4.16923 -0.181191 1.44159
lowerneck -11.5861 1.27728 -2.14278
upperneck 35.1058 2.14349 0.885393
head 13.8029 0.760947 1.05122
rclavicle 2.5345e-015 -2.22639e-014
rhumerus -21.2282 -14.406 -82.3089
rradius 26.8865
rwrist 27.7343
rhand -18.498 -25.6288
rfingers 7.12502
rthumb 7.78966 -55.4653
lclavicle 2.5345e-015 -2.22639e-014
lhumerus -15.6896 -2.10008 85.0992
lradius 19.0407
lwrist 10.8172
lhand -26.9337 -3.92876
lfingers 7.12502
lthumb -0.35603 26.0507
rfemur -23.272 -0.793277 18.6567
rtibia 27.4877
rfoot -13.1087 -2.07137
rtoes 5.03235
lfemur -20.727 5.81839 -17.2967
ltibia 23.3162
lfoot -11.2118 4.03162
ltoes -6.51561
44
root 0.11098 17.5034 -14.4132 10.9775 0.463832 -1.35878
lowerback 3.93276 -0.217913 -0.0547904
upperback 6.20868 -0.33363 1.3836
thorax 4.21072 -0.204183 1.46011
lowerneck -11.5724 1.27557 -2.19937
upperneck 35.1861 2.14465 0.921797
head 13.8346 0.758082 1.07704
rclavicle -2.88238e-015 -4.37326e-015
rhumerus -21.171 -14.4957 -82.257
rradius 26.71
rwrist 27.909
rhand -18.5194 -25.7325
rfingers 7.12502
rthumb 7.76899 -55.5698
lclavicle -2.88238e-015 -4.37326e-015
lhumerus -15.4361 -1.87684 85.0281
lradius 18.8547
lwrist 10.3001
lhand -26.8863 -3.83406
lfingers 7.12502
lthumb -0.310261 26.1455
rfemur -23.038 -0.938656 18.7531
rtibia 27.2648
rfoot -13.2536 -2.38224
rtoes 4.96027
lfemur -20.8197 5.72947 -17.2778
ltibia 23.603
lfoot -11.2836 4.05931
ltoes -6.79163
45
root 0.103396 17.4946 -14.4134 10.8909 0.597583 -1.35008
lowerback 3.94619 -0.245548 -0.0265019
upperback 6.25435 -0.371398 1.41694
thorax 4.2523 -0.222867 1.47895
lowerneck -11.5403 1.26866 -2.27855
upperneck 35.2796 2.13518 0.982816
head 13.8677 0.750781 1.11518
rclavicle -2.38542e-015 5.36719e-015
rhumerus -21.1058 -14.5978 -82.1977
rradius 26.5322
rwrist 28.0922
rhand -18.6142 -25.8439
rfingers 7.12502
rthumb 7.67758 -55.6846
lclavicle -2.38542e-015 5.36719e-015
lhumerus -15.1703 -1.57304 84.9601
lradius 18.6558
lwrist 9.73724
lhand -26.8854 -3.8306
lfingers 7.12502
lthumb -0.309383 26.1489
rfemur -22.8003 -1.03152 18.841
rtibia 27.0482
rfoot -13.3913 -2.67966
rtoes 4.92079
lfemur -20.8993 5.61638 -17.2447
ltibia 23.876
lfoot -11.3358 4.12228
ltoes -7.06024
46
root 0.0955817 17.4872 -14.4138 10.8023 0.708827 -1.3504
lowerback 3.96054 -0.264962 0.00706843
upperback 6.29994 -0.398269 1.45158
thorax 4.29299 -0.235923 1.49618
lowerneck -11.5137 1.25805 -2.35892
upperneck 35.4028 2.11925 1.04894
head 13.9156 0.740718 1.15526
rclavicle -1.88845e-015 -9.54166e-015
rhumerus -21.0357 -14.7006 -82.1342
rradius 26.3605
rwrist 28.2786
rhand -18.7728 -25.9631
rfingers 7.12502
rthumb 7.52449 -55.8093
lclavicle -1.88845e-015 -9.54166e-015
lhumerus -14.899 -1.17603 84.8922
lradius 18.4542
lwrist 9.12577
lhand -26.9081 -3.87536
lfingers 7.12502
lthumb -0.3313 26.1041
rfemur -22.568 -1.0614 18.912
rtibia 26.8496
rfoot -13.5098 -2.93231
rtoes 4.91612
lfemur -20.9567 5.48658 -17.1997
ltibia 24.1205
lfoot -11.367 4.21981
ltoes -7.29098
47
root 0.0878316 17.4815 -14.4143 10.7162 0.786882 -1.36508
lowerback 3.97329 -0.273384 0.0519624
upperback 6.34445 -0.410497 1.48653
thorax 4.33299 -0.241187 1.50734
lowerneck -11.4958 1.24449 -2.4317
upperneck 35.5506 2.09735 1.11511
head 13.9771 0.72864 1.19376
rclavicle -6.06293e-015 -7.55382e-015
rhumerus -20.9598 -14.7944 -82.0701
rradius 26.1959
rwrist 28.4533
rhand -18.9623 -26.0986
rfingers 7.12502
rthumb 7.34159 -55.9513
lclavicle -6.06293e-015 -7.55382e-015
lhumerus -14.6262 -0.689632 84.8252
lradius 18.2554
lwrist 8.48999
lhand -26.9663 -3.99746
lfingers 7.12502
lthumb -0.387551 25.9819
rfemur -22.3585 -1.03873 18.9719
rtibia 26.6793
rfoot -13.597 -3.11031
rtoes 4.95412
lfemur -20.9893 5.34935 -17.1393
ltibia 24.3248
lfoot -11.3707 4.35312
ltoes -7.48966
48
root 0.0805483 17.4779 -14.4147 10.6383 0.82375 -1.39206
lowerback 3.97859 -0.269031 0.107699
upperback 6.38674 -0.405696 1.51927
thorax 4.37429 -0.23742 1.51009
lowerneck -11.5057 1.22948 -2.47607
upperneck 35.7372 2.07493 1.15872
head 14.0637 0.716414 1.21922
rclavicle -4.67144e-015 1.13307e-014
rhumerus -20.8782 -14.8844 -82.0068
rradius 26.0387
rwrist 28.6183
rhand -19.1768 -26.2452
rfingers 7.12502
rthumb 7.1345 -56.105
lclavicle -4.67144e-015 1.13307e-014
lhumerus -14.353 -0.10053 84.7584
lradius 18.0633
lwrist 7.81734
lhand -27.0418 -4.14916
lfingers 7.12502
lthumb -0.460429 25.8301
rfemur -22.1836 -0.987971 19.0226
rtibia 26.5417
rfoot -13.6463 -3.186
rtoes 5.07223
lfemur -20.9975 5.21162 -17.0686
ltibia 24.4836
lfoot -11.3464 4.52261
ltoes -7.64035
49
root 0.0740898 17.4764 -14.4149 10.5744 0.813157 -1.43491
lowerback 3.97323 -0.251101 0.179031
upperback 6.42303 -0.382752 1.54922
thorax 4.41471 -0.223811 1.50118
lowerneck -11.5412 1.21527 -2.48563
upperneck 35.9549 2.05439 1.17694
head 14.1719 0.705681 1.22948
rclavicle -2.88238e-015 2.98177e-015
rhumerus -20.7972 -14.9692 -81.9452
rradius 25.891
rwrist 28.7729
rhand -19.396 -26.4006
rfingers 7.12502
rthumb 6.92289 -56.2674
lclavicle -2.88238e-015 2.98177e-015
lhumerus -14.0934 0.573405 84.6955
lradius 17.8868
lwrist 7.15284
lhand -27.1607 -4.34872
lfingers 7.12502
lthumb -0.575314 25.6302
rfemur -22.0516 -0.940492 19.0764
rtibia 26.4345
rfoot -13.6598 -3.14462
rtoes 5.28155
lfemur -20.9851 5.08521 -16.9867
ltibia 24.5954
lfoot -11.3005 4.72313
ltoes -7.74373
